<?xml version="1.0" encoding="utf-8"?><svg version="1.1" id="Layer_1" xmlns="http://www.w3.org/2000/svg" xmlns:xlink="http://www.w3.org/1999/xlink" x="0px" y="0px" width="122.88px" height="122.881px" viewBox="0 0 122.88 122.881" enable-background="new 0 0 122.88 122.881" xml:space="preserve"><g><path fill-rule="evenodd" clip-rule="evenodd" d="M94.824,0h28.056v28.056H94.824V0L94.824,0z M0,94.824h28.057v28.057H0V94.824 L0,94.824z M0,47.412h28.057v28.057H0V47.412L0,47.412z M0,0h28.057v28.056H0V0L0,0z M47.412,94.824h28.057v28.057H47.412V94.824 L47.412,94.824z M47.412,47.412h28.057v28.057H47.412V47.412L47.412,47.412z M47.412,0h28.057v28.056H47.412V0L47.412,0z M94.824,94.824h28.056v28.057H94.824V94.824L94.824,94.824z M94.824,47.412h28.056v28.057H94.824V47.412L94.824,47.412z"/></g></svg>