<?xml version="1.0" encoding="utf-8"?><svg version="1.1" id="Layer_1" xmlns="http://www.w3.org/2000/svg" xmlns:xlink="http://www.w3.org/1999/xlink" x="0px" y="0px" viewBox="0 0 122.88 110.35" style="enable-background:new 0 0 122.88 110.35" xml:space="preserve"><style type="text/css">.st0{fill-rule:evenodd;clip-rule:evenodd;}</style><g><path class="st0" d="M61.44,37.35c9.84,0,17.82,7.98,17.82,17.82c0,9.84-7.98,17.82-17.82,17.82c-9.84,0-17.82-7.98-17.82-17.82 C43.62,45.33,51.6,37.35,61.44,37.35L61.44,37.35z M104.34,0v6.22h12.22V0h6.32v110.35h-6.32v-7.19h-12.22v7.19h-6.32V94.79H24.87 v15.56h-6.32v-7.19H6.32v7.19H0V0h6.32v6.22h12.22V0h6.32v14.88h73.15V0H104.34L104.34,0z M98.01,88.47V21.2H24.87v67.27H98.01 L98.01,88.47z M18.54,96.84v-11.8H6.32v11.8H18.54L18.54,96.84z M18.54,78.72v-11.8H6.32v11.8H18.54L18.54,78.72z M18.54,60.59 v-11.8H6.32v11.8H18.54L18.54,60.59z M18.54,42.47v-11.8H6.32v11.8H18.54L18.54,42.47z M18.54,24.35v-11.8H6.32v11.8H18.54 L18.54,24.35z M116.56,96.84v-11.8h-12.22v11.8H116.56L116.56,96.84z M116.56,78.72v-11.8h-12.22v11.8H116.56L116.56,78.72z M116.56,60.59v-11.8h-12.22v11.8H116.56L116.56,60.59z M116.56,42.47v-11.8h-12.22v11.8H116.56L116.56,42.47z M116.56,24.35v-11.8 h-12.22v11.8H116.56L116.56,24.35z M69.09,52.88c1.24-0.01,2.24,0.98,2.23,2.22c0,1.24-1.01,2.25-2.24,2.26l-5.42,0.04l-0.04,5.43 c-0.01,1.23-1.02,2.22-2.25,2.22c-1.24,0-2.23-1-2.22-2.22l0.04-5.39l-5.4,0.04c-1.24,0.01-2.24-0.98-2.23-2.22 c0-1.24,1.01-2.25,2.24-2.26l5.42-0.04l0.04-5.43c0.01-1.23,1.02-2.22,2.25-2.22c1.24,0,2.23,1,2.22,2.22l-0.04,5.39L69.09,52.88 L69.09,52.88z"/></g></svg>